<?xml version="1.0" encoding="UTF-8"?>
<svg version="1.1" xmlns="http://www.w3.org/2000/svg" width="297" height="297">
<path d="M0 0 C98.01 0 196.02 0 297 0 C297 98.01 297 196.02 297 297 C198.99 297 100.98 297 0 297 C0 198.99 0 100.98 0 0 Z " fill="#FB9703" transform="translate(0,0)"/>
<path d="M0 0 C1.94118462 -0.01062721 1.94118462 -0.01062721 3.92158508 -0.02146912 C5.35890233 -0.01917521 6.79621924 -0.0166655 8.23353577 -0.01396179 C9.74471285 -0.01830819 11.25588773 -0.02349109 12.76705933 -0.02944946 C16.87448204 -0.04285859 20.98181285 -0.04341601 25.08925319 -0.04088616 C28.5163019 -0.03981774 31.94333193 -0.04469652 35.37037665 -0.04949158 C43.45433449 -0.0605934 51.53824586 -0.0610204 59.62220764 -0.05497742 C67.96615532 -0.04893606 76.30993444 -0.06125115 84.65385336 -0.08254749 C91.81401297 -0.10015156 98.97411887 -0.10616673 106.13429934 -0.10290974 C110.4123531 -0.10109482 114.69028664 -0.1037538 118.96832085 -0.11762428 C122.99108451 -0.13017865 127.01358502 -0.12828138 131.03634453 -0.11521339 C132.51338285 -0.11284282 133.99043956 -0.11559951 135.46745682 -0.12383652 C137.48243089 -0.13426395 139.49747959 -0.12442305 141.51245117 -0.11352539 C142.6405165 -0.11369313 143.76858183 -0.11386087 144.93083096 -0.1140337 C148.15536952 0.30423532 149.54282299 0.96824834 151.81971741 3.26069641 C152.35096741 6.03804016 152.35096741 6.03804016 152.31971741 9.19819641 C152.33518616 10.75860657 152.33518616 10.75860657 152.35096741 12.35054016 C151.67447091 16.05634819 150.82809845 17.01121164 147.81971741 19.26069641 C144.97116523 19.66351767 142.50348165 19.82517982 139.65467834 19.80659485 C138.83479431 19.81693253 138.01491028 19.8272702 137.17018127 19.83792114 C134.46461858 19.86738031 131.75980297 19.86884895 129.05409241 19.87007141 C127.17649404 19.88505098 125.29890887 19.90177766 123.42134094 19.92018127 C118.48283793 19.96389212 113.54451266 19.98386216 108.60585022 19.99891663 C103.56505303 20.01847424 98.52444818 20.06044576 93.48377991 20.10054016 C83.59581835 20.17588273 73.70789975 20.22614971 63.81971741 20.26069641 C76.54689976 39.78575018 76.54689976 39.78575018 89.44471741 59.19819641 C93.78592405 65.66543547 98.04984063 72.16948252 102.21717834 78.75019836 C104.29588616 82.00665059 106.44247878 85.20271382 108.63221741 88.38569641 C109.01313538 88.94772766 109.39405334 89.50975891 109.78651428 90.08882141 C111.8384358 93.17485389 111.8384358 93.17485389 114.81971741 95.26069641 C115.04659241 94.58007141 115.27346741 93.89944641 115.50721741 93.19819641 C116.82492503 90.24904125 118.50288571 87.90132995 120.41737366 85.31538391 C121.97053233 83.03972525 123.22899848 80.70126173 124.50721741 78.26069641 C126.87159704 73.8312257 129.49445434 69.6558439 132.31971741 65.51069641 C136.71190012 59.05853845 140.79205565 52.44574526 144.81971741 45.76069641 C149.17931986 38.52619857 153.63626931 31.40759724 158.40028381 24.43330383 C161.94637063 19.19560775 165.01740099 13.74496946 168.03065491 8.18647766 C170.12779968 4.75686753 172.18818228 2.07646398 175.81971741 0.26069641 C178.70234761 0.15166266 181.56118664 0.1033628 184.44447327 0.0995636 C185.78367577 0.09211624 185.78367577 0.09211624 187.14993286 0.08451843 C190.11148338 0.06988008 193.07298036 0.06309258 196.03456116 0.05757141 C198.08717857 0.05182203 200.13979596 0.04606427 202.19241333 0.04029846 C206.49909211 0.02978418 210.8057522 0.02394408 215.11244202 0.02046204 C220.63874103 0.01497163 226.16479435 -0.00906632 231.6910162 -0.03750992 C235.93142425 -0.05610475 240.1717727 -0.06134018 244.41221809 -0.06287384 C246.4500367 -0.06590725 248.4878541 -0.0739588 250.52563286 -0.08705902 C253.37246964 -0.1040562 256.21870052 -0.102255 259.06556702 -0.0957489 C259.91190704 -0.10496368 260.75824707 -0.11417847 261.63023376 -0.12367249 C267.39093118 -0.08229402 267.39093118 -0.08229402 269.53632736 1.63383007 C271.36082241 3.94661846 271.19397483 5.60448593 271.19203186 8.52656555 C271.19826065 9.60100418 271.20448944 10.67544281 271.21090698 11.78244019 C271.19709236 13.52157936 271.19709236 13.52157936 271.18299866 15.29585266 C271.18349716 16.4854509 271.18399567 17.67504913 271.18450928 18.9006958 C271.18216749 21.4166277 271.17243293 23.93256189 271.15589905 26.44844055 C271.13229072 30.31120111 271.13533955 34.17327261 271.14198303 38.03608704 C271.13640707 40.47684638 271.12929771 42.91760281 271.12049866 45.35835266 C271.12141006 46.51980301 271.12232147 47.68125336 271.1232605 48.87789917 C271.11372849 49.94918564 271.10419647 51.02047211 271.09437561 52.1242218 C271.08976822 53.07003616 271.08516083 54.01585052 271.08041382 54.99032593 C270.81971741 57.26069641 270.81971741 57.26069641 268.81971741 59.26069641 C266.50033569 59.47187805 266.50033569 59.47187805 263.56312561 59.42085266 C262.4647084 59.40844543 261.3662912 59.39603821 260.23458862 59.383255 C259.04193893 59.36343567 257.84928925 59.34361633 256.62049866 59.32319641 C254.10683424 59.31425853 251.59315989 59.30782762 249.07948303 59.30366516 C245.10650413 59.28942949 241.13609429 59.26076653 237.16371155 59.18891907 C233.33554924 59.12550179 229.51158149 59.1254006 225.68299866 59.13569641 C224.50047012 59.09968323 223.31794159 59.06367004 222.09957886 59.02656555 C215.73254868 59.05097526 215.73254868 59.05097526 210.57246399 62.39930725 C208.76820309 64.94852594 207.27496308 67.500191 205.81971741 70.26069641 C204.83450702 71.81536075 203.83897093 73.36359329 202.82752991 74.90132141 C201.86412801 76.4362357 200.90322622 77.97272179 199.94471741 79.51069641 C198.90751831 81.16599618 197.8697526 82.82094104 196.83143616 84.47554016 C196.32531799 85.28233215 195.81919983 86.08912415 195.29774475 86.92036438 C193.92984823 89.08631351 192.54653873 91.24090042 191.15174866 93.38960266 C190.74488831 94.0164093 190.33802795 94.64321594 189.9188385 95.28901672 C188.83467383 96.95422803 187.74724227 98.6173111 186.65956116 100.28022766 C184.85499349 103.20355066 183.33589969 106.18049179 181.81971741 109.26069641 C182.90521881 109.25625519 183.99072021 109.25181396 185.1091156 109.24723816 C195.32148427 109.20675627 205.53383673 109.17674295 215.74626732 109.15707207 C220.99702158 109.14661924 226.24771126 109.13243278 231.49842834 109.1098175 C236.56233483 109.08814247 241.62617905 109.07613909 246.69012833 109.07094193 C248.62549953 109.06723654 250.56086719 109.06000123 252.49621201 109.0492363 C255.19966338 109.03479227 257.90285497 109.03271548 260.6063385 109.03364563 C261.4126622 109.02645508 262.2189859 109.01926453 263.04974365 109.01185608 C268.59161308 109.03259209 268.59161308 109.03259209 270.81971741 111.26069641 C271.08041382 113.56903076 271.08041382 113.56903076 271.09437561 116.4889679 C271.10390762 117.58027512 271.11343964 118.67158234 271.1232605 119.79595947 C271.12189339 121.57094566 271.12189339 121.57094566 271.12049866 123.38179016 C271.12478378 124.59262772 271.12906891 125.80346527 271.13348389 127.05099487 C271.13923576 129.61576206 271.13972118 132.18054557 271.13539124 134.74531555 C271.13223325 138.67845899 271.15567419 142.61084931 271.18104553 146.54389954 C271.18331855 149.03152879 271.18402201 151.51916008 271.18299866 154.00679016 C271.1922084 155.18809006 271.20141815 156.36938995 271.21090698 157.58648682 C271.2015638 159.22817589 271.2015638 159.22817589 271.19203186 160.9030304 C271.19266129 161.86740524 271.19329071 162.83178009 271.19393921 163.82537842 C270.81971741 166.26069641 270.81971741 166.26069641 269.74803162 168.07426453 C266.82292829 169.87398982 263.92310023 169.65326684 260.59437561 169.60127258 C259.86241974 169.60171066 259.13046387 169.60214874 258.37632751 169.6026001 C255.95744635 169.60051039 253.5392587 169.57717156 251.12049866 169.55366516 C249.44327167 169.54806983 247.76603979 169.54379944 246.08880615 169.540802 C241.67459066 169.52934819 237.26067135 169.49987653 232.84657288 169.46669006 C228.3422191 169.43600066 223.83781747 169.42229909 219.33338928 169.40718079 C210.4953476 169.37500717 201.65760347 169.32223499 192.81971741 169.26069641 C192.81971741 161.67069641 192.81971741 154.08069641 192.81971741 146.26069641 C204.03971741 146.26069641 215.25971741 146.26069641 226.81971741 146.26069641 C225.82971741 143.78569641 225.82971741 143.78569641 224.81971741 141.26069641 C183.23971741 140.76569641 183.23971741 140.76569641 140.81971741 140.26069641 C139.82971741 143.23069641 139.82971741 143.23069641 138.81971741 146.26069641 C137.34354218 148.02415858 135.82063287 149.74912183 134.26332092 151.44136047 C127.88720122 159.25874178 128.57715179 167.71379153 128.72206116 177.37007141 C128.71540292 178.9861413 128.70470714 180.60219965 128.68995667 182.21821594 C128.66367309 188.1490269 128.71495331 194.0799778 128.75721741 200.01069641 C128.78815491 219.93444641 128.78815491 219.93444641 128.81971741 240.26069641 C160.49971741 240.26069641 192.17971741 240.26069641 224.81971741 240.26069641 C225.14971741 238.94069641 225.47971741 237.62069641 225.81971741 236.26069641 C226.14971741 235.60069641 226.47971741 234.94069641 226.81971741 234.26069641 C218.89971741 234.26069641 210.97971741 234.26069641 202.81971741 234.26069641 C202.81971741 227.99069641 202.81971741 221.72069641 202.81971741 215.26069641 C211.3905091 215.2155614 219.96120883 215.17884724 228.53208733 215.15707207 C232.51163514 215.14662255 236.49109762 215.13244219 240.47059631 215.1098175 C244.30905626 215.08813056 248.147434 215.07613659 251.98595047 215.07094193 C253.45242228 215.06723868 254.91888946 215.06000742 256.38532639 215.0492363 C258.43500846 215.03477622 260.48434823 215.03271612 262.53407288 215.03364563 C263.70211456 215.02920441 264.87015625 215.02476318 266.07359314 215.02018738 C268.81971741 215.26069641 268.81971741 215.26069641 270.81971741 217.26069641 C271.07368469 219.68965149 271.07368469 219.68965149 271.07850647 222.78022766 C271.08481079 223.93482483 271.09111511 225.089422 271.09761047 226.27900696 C271.09153778 228.15713074 271.09153778 228.15713074 271.08534241 230.07319641 C271.08725586 231.35299377 271.08916931 232.63279114 271.09114075 233.95137024 C271.09409122 236.66162434 271.08979696 239.37174668 271.08045959 242.08198547 C271.06906493 245.55918872 271.07562484 249.03608324 271.08760452 252.51327515 C271.09656166 255.82494046 271.09029376 259.13652232 271.08534241 262.44819641 C271.08939087 263.70027893 271.09343933 264.95236145 271.09761047 266.24238586 C271.08815399 267.97428162 271.08815399 267.97428162 271.07850647 269.74116516 C271.07691528 270.7610553 271.0753241 271.78094543 271.07368469 272.83174133 C270.81971741 275.26069641 270.81971741 275.26069641 268.81971741 277.26069641 C265.69616751 277.45973912 262.66123196 277.53330504 259.53651428 277.51948547 C258.09248985 277.52474243 258.09248985 277.52474243 256.61929321 277.53010559 C253.42561204 277.53893419 250.23215098 277.53306974 247.03846741 277.52632141 C244.82651222 277.52766774 242.61455732 277.52960799 240.40260315 277.53211975 C235.762153 277.53507255 231.12177973 277.53076836 226.4813385 277.5214386 C220.52227916 277.51004402 214.56339996 277.51660266 208.60434723 277.52858353 C204.0354221 277.53579792 199.46653993 277.53351613 194.89761353 277.52832794 C192.69988992 277.52699028 190.50216246 277.52864321 188.30444336 277.53328705 C185.23716341 277.53834535 182.17017842 277.5306518 179.10292053 277.51948547 C178.18753006 277.52353394 177.27213959 277.5275824 176.32901001 277.53175354 C170.04824482 277.48922383 170.04824482 277.48922383 167.81971741 275.26069641 C167.81971741 268.00069641 167.81971741 260.74069641 167.81971741 253.26069641 C186.95971741 253.26069641 206.09971741 253.26069641 225.81971741 253.26069641 C225.15971741 251.94069641 224.49971741 250.62069641 223.81971741 249.26069641 C223.81971741 248.27069641 223.81971741 247.28069641 223.81971741 246.26069641 C211.89325728 246.2524 199.9673348 246.27615093 188.0410347 246.34097481 C182.50328063 246.37006415 176.96595104 246.38805513 171.42811584 246.3808136 C166.08506306 246.37423291 160.74285002 246.39663384 155.39997101 246.43925095 C153.36023192 246.45040462 151.32040789 246.45106204 149.28066254 246.44112015 C146.42588383 246.42898756 143.57368409 246.45395423 140.71913147 246.48774719 C139.45030121 246.46941582 139.45030121 246.46941582 138.15583801 246.45071411 C135.88308992 246.49928877 133.99192477 246.58800874 131.81971741 247.26069641 C129.20294899 250.13303071 129.20294899 250.13303071 127.81971741 253.26069641 C126.16971741 252.93069641 124.51971741 252.60069641 122.81971741 252.26069641 C122.81971741 219.26069641 122.81971741 186.26069641 122.81971741 152.26069641 C124.79971741 151.27069641 126.77971741 150.28069641 128.81971741 149.26069641 C132.92869447 145.59593308 133.58670158 141.98800189 133.92518616 136.69819641 C133.73720969 132.35385142 131.97452665 129.54381779 129.13221741 126.38569641 C128.69909241 126.01444641 128.26596741 125.64319641 127.81971741 125.26069641 C129.31820229 119.30517957 132.57114962 114.93934636 136.06971741 110.01069641 C140.14626739 104.1727776 144.14262444 98.36285636 147.67127991 92.17085266 C148.92424277 90.086843 150.33215125 88.18249431 151.81971741 86.26069641 C153.46971741 86.92069641 155.11971741 87.58069641 156.81971741 88.26069641 C156.21070634 91.24892716 155.28219216 93.37913722 153.59706116 95.91304016 C152.91788635 96.94485413 152.91788635 96.94485413 152.22499084 97.99751282 C151.74062561 98.7237384 151.25626038 99.44996399 150.75721741 100.19819641 C149.76059474 101.72519509 148.76450625 103.25254252 147.76893616 104.78022766 C145.95831053 107.5417701 144.12695503 110.28729542 142.27674866 113.02241516 C141.54042584 114.14308491 140.80470754 115.26415218 140.06971741 116.38569641 C139.41487366 117.35764954 138.76002991 118.32960266 138.08534241 119.33100891 C136.48400898 123.03779926 136.94856782 125.37924102 137.81971741 129.26069641 C138.47971741 129.26069641 139.13971741 129.26069641 139.81971741 129.26069641 C140.07108459 128.56073547 140.32245178 127.86077454 140.58143616 127.13960266 C142.24231029 123.27820129 144.49234196 119.92439529 146.80409241 116.42353821 C149.28062656 112.66100005 151.67165608 108.86689068 153.98768616 105.00288391 C155.09836044 103.19298636 156.20903751 101.38309052 157.31971741 99.57319641 C157.8286554 98.699776 158.33759338 97.82635559 158.86195374 96.9264679 C162.21295167 91.54852488 164.64936908 89.35984251 170.82167053 87.82002258 C173.44681497 87.08514894 174.6927073 85.91743074 176.31971741 83.76069641 C176.78377991 83.17288391 177.24784241 82.58507141 177.72596741 81.97944641 C180.43398137 77.72399591 180.38602294 73.12283391 179.81971741 68.26069641 C178.42402218 63.94749369 176.29122177 61.6359754 172.75721741 58.82319641 C167.99827989 56.45398398 162.99455224 56.51026719 157.81971741 57.26069641 C152.89709425 59.40875015 150.64820618 62.33405748 148.50331116 67.10444641 C147.23007166 71.12060756 147.09433979 75.20681822 148.51502991 79.22944641 C148.81971741 81.26069641 148.81971741 81.26069641 147.73768616 83.27632141 C147.16663147 84.01366516 146.59557678 84.75100891 146.00721741 85.51069641 C142.71672274 89.94827588 139.76304616 94.49145909 136.88221741 99.19819641 C133.29979944 105.01749119 129.54282121 110.57692828 125.41346741 116.02632141 C123.76048669 118.16412489 123.76048669 118.16412489 122.90565491 120.48725891 C121.81971741 122.26069641 121.81971741 122.26069641 119.57752991 123.01850891 C118.70870178 123.13968079 117.83987366 123.26085266 116.94471741 123.38569641 C113.5009982 123.88940459 110.8643567 124.54720174 107.81971741 126.26069641 C102.81971741 120.51069641 102.81971741 120.51069641 102.81971741 118.26069641 C101.16971741 119.25069641 99.51971741 120.24069641 97.81971741 121.26069641 C98.24124084 121.85495422 98.66276428 122.44921204 99.09706116 123.06147766 C102.88098555 128.78633269 104.28358484 132.88535374 104.55409241 139.70600891 C104.97098115 143.71549771 106.47135631 146.01443254 108.81971741 149.26069641 C111.73736741 151.20579641 113.44509026 151.71345958 116.81971741 152.26069641 C117.0050209 165.08209064 117.14719609 177.90316675 117.23421478 190.72562695 C117.27597857 196.67961077 117.3326303 202.63267904 117.42323303 208.58613586 C117.51011402 214.33094597 117.55798256 220.07487519 117.57873535 225.82029152 C117.59352532 228.01288539 117.62240775 230.20543064 117.66555786 232.39764977 C117.7235905 235.46788805 117.73163274 238.53448096 117.72792053 241.60517883 C117.77106384 242.96679893 117.77106384 242.96679893 117.81507874 244.35592651 C117.78173863 246.90213967 117.68454171 248.8630517 116.81971741 251.26069641 C114.86640257 253.02858226 112.99791089 254.15475609 110.63544464 255.3110857 C108.64220411 256.12795464 108.64220411 256.12795464 107.81971741 258.26069641 C107.28853488 263.18066569 107.06866188 267.03397238 109.69471741 271.32319641 C113.2746647 274.587266 115.87857538 274.53968216 120.56190491 274.47944641 C123.65679896 274.17959508 125.45889162 273.26382132 127.81971741 271.26069641 C129.9743854 267.6898862 130.12438707 264.66137579 130.28065491 260.57710266 C131.07115135 257.18025927 132.27686594 255.66348602 134.81971741 253.26069641 C137.75837526 252.64359739 140.58350575 252.78724802 143.56971741 252.94819641 C144.36249084 252.970755 145.15526428 252.9933136 145.97206116 253.01655579 C147.92209361 253.0752917 149.87115052 253.16496987 151.81971741 253.26069641 C151.91870356 258.1719323 151.99123987 263.08258579 152.03944397 267.99458313 C152.05954133 269.66493343 152.08682424 271.33521354 152.12147522 273.00532532 C152.1700786 275.40833362 152.19270396 277.81041075 152.21034241 280.21382141 C152.23098755 280.95875854 152.25163269 281.70369568 152.27290344 282.47120667 C152.27432939 285.77703876 152.17775399 287.79304692 150.13703918 290.45852661 C147.28863635 292.67371555 145.86495633 292.76179516 142.28846741 292.7624054 C140.62654358 292.77647682 140.62654358 292.77647682 138.93104553 292.79083252 C137.73930725 292.77959854 136.54756897 292.76836456 135.31971741 292.75679016 C134.09188538 292.75824539 132.86405334 292.75970062 131.59901428 292.76119995 C129.00328702 292.75954009 126.40755 292.74796933 123.81190491 292.72724915 C119.83491787 292.69830703 115.85926432 292.70663725 111.88221741 292.71968079 C109.36137758 292.71344317 106.84054198 292.70505205 104.31971741 292.69429016 C103.12797913 292.6972258 101.93624084 292.70016144 100.70838928 292.70318604 C99.60044006 292.69050186 98.49249084 292.67781769 97.35096741 292.66474915 C96.37708069 292.65934616 95.40319397 292.65394318 94.39979553 292.64837646 C91.30311629 292.18307242 90.06995967 291.41943398 87.81971741 289.26069641 C87.37056828 286.99473953 87.37056828 286.99473953 87.44204712 284.28712463 C87.46670044 282.74524223 87.46670044 282.74524223 87.49185181 281.17221069 C87.54888527 279.48012733 87.54888527 279.48012733 87.60707092 277.75386047 C87.63046539 276.56451401 87.65385986 275.37516754 87.67796326 274.14978027 C87.72901345 271.55674513 87.78786329 268.9638548 87.85347176 266.37114716 C87.95546149 262.23762495 88.00807489 258.10438553 88.04943848 253.96986389 C88.06029467 252.91887508 88.06029467 252.91887508 88.07137018 251.84665418 C88.08612949 250.41279697 88.10079589 248.9789388 88.11537158 247.54507971 C88.21560307 237.92632014 88.34847987 228.31058063 88.61146545 218.69477844 C90.84827791 174.59444473 90.84827791 174.59444473 71.04212952 136.7245636 C70.14944366 135.79817078 69.25675781 134.87177795 68.33702087 133.91731262 C63.08423641 128.37382827 58.52143087 123.05351829 57.81971741 115.26069641 C58.80775452 112.80708313 58.80775452 112.80708313 60.34706116 110.44038391 C60.89169006 109.57542297 61.43631897 108.71046204 61.99745178 107.81929016 C62.86853577 106.49091125 62.86853577 106.49091125 63.75721741 105.13569641 C64.89915587 103.36728668 66.03362156 101.59402285 67.15956116 99.81538391 C67.66866028 99.03662903 68.1777594 98.25787415 68.70228577 97.45552063 C70.12218708 95.07707932 70.12218708 95.07707932 69.81971741 91.26069641 C68.51198039 89.08985297 67.19134761 87.10468003 65.69471741 85.07319641 C64.92901428 84.00714172 64.16331116 82.94108704 63.37440491 81.84272766 C62.9645636 81.2740094 62.55472229 80.70529114 62.13246155 80.11933899 C60.16390217 77.33216351 58.28871842 74.48489939 56.40370178 71.64082336 C53.68260457 67.55204767 50.90606331 63.5012899 48.13221741 59.44819641 C47.56438538 58.61610657 46.99655334 57.78401672 46.41151428 56.92671204 C45.86172913 56.12298157 45.31194397 55.3192511 44.74549866 54.49116516 C44.25476868 53.77339905 43.7640387 53.05563293 43.25843811 52.31611633 C41.82146565 50.26319403 40.3344859 48.25670924 38.81971741 46.26069641 C36.34471741 46.75569641 36.34471741 46.75569641 33.81971741 47.26069641 C42.48253111 61.23747605 42.48253111 61.23747605 51.92909241 74.68647766 C54.14156076 77.69890874 56.24370972 80.77858039 58.31971741 83.88569641 C58.99002991 84.88858704 59.66034241 85.89147766 60.35096741 86.92475891 C61.81971741 89.26069641 61.81971741 89.26069641 61.81971741 90.26069641 C54.20748248 91.67937176 46.29857554 92.71982514 38.81971741 90.26069641 C32.63895309 85.42440763 29.09983293 78.08162716 25.45887756 71.27583313 C23.42666237 67.53769527 21.17111025 63.98008287 18.8653717 60.40644836 C17.4162292 58.16028892 16.0060031 55.89397358 14.60096741 53.62007141 C12.08522237 49.60908077 9.38038911 45.7499614 6.6532135 41.8808136 C-10.98965046 16.66866766 -10.98965046 16.66866766 -9.96543884 4.70991516 C-8.3437511 -0.34878242 -4.60980229 0.00839179 0 0 Z " fill="#031011" transform="translate(18.180282592773438,2.7393035888671875)"/>
<path d="M0 0 C1.94118462 -0.01062721 1.94118462 -0.01062721 3.92158508 -0.02146912 C5.35890233 -0.01917521 6.79621924 -0.0166655 8.23353577 -0.01396179 C9.74471285 -0.01830819 11.25588773 -0.02349109 12.76705933 -0.02944946 C16.87448204 -0.04285859 20.98181285 -0.04341601 25.08925319 -0.04088616 C28.5163019 -0.03981774 31.94333193 -0.04469652 35.37037665 -0.04949158 C43.45433449 -0.0605934 51.53824586 -0.0610204 59.62220764 -0.05497742 C67.96615532 -0.04893606 76.30993444 -0.06125115 84.65385336 -0.08254749 C91.81401297 -0.10015156 98.97411887 -0.10616673 106.13429934 -0.10290974 C110.4123531 -0.10109482 114.69028664 -0.1037538 118.96832085 -0.11762428 C122.99108451 -0.13017865 127.01358502 -0.12828138 131.03634453 -0.11521339 C132.51338285 -0.11284282 133.99043956 -0.11559951 135.46745682 -0.12383652 C137.48243089 -0.13426395 139.49747959 -0.12442305 141.51245117 -0.11352539 C142.6405165 -0.11369313 143.76858183 -0.11386087 144.93083096 -0.1140337 C148.15536952 0.30423532 149.54282299 0.96824834 151.81971741 3.26069641 C152.35096741 6.03804016 152.35096741 6.03804016 152.31971741 9.19819641 C152.33518616 10.75860657 152.33518616 10.75860657 152.35096741 12.35054016 C151.67447091 16.05634819 150.82809845 17.01121164 147.81971741 19.26069641 C144.97116523 19.66351767 142.50348165 19.82517982 139.65467834 19.80659485 C138.83479431 19.81693253 138.01491028 19.8272702 137.17018127 19.83792114 C134.46461858 19.86738031 131.75980297 19.86884895 129.05409241 19.87007141 C127.17649404 19.88505098 125.29890887 19.90177766 123.42134094 19.92018127 C118.48283793 19.96389212 113.54451266 19.98386216 108.60585022 19.99891663 C103.56505303 20.01847424 98.52444818 20.06044576 93.48377991 20.10054016 C83.59581835 20.17588273 73.70789975 20.22614971 63.81971741 20.26069641 C76.54689976 39.78575018 76.54689976 39.78575018 89.44471741 59.19819641 C93.78667396 65.66655263 98.04965774 72.17241694 102.21717834 78.7545929 C104.28894312 81.99448708 106.43999259 85.16347483 108.63221741 88.32319641 C109.38116272 89.40729797 110.13010803 90.49139954 110.90174866 91.60835266 C112.7102014 94.25694622 112.7102014 94.25694622 114.81971741 96.26069641 C112.50721741 96.88569641 112.50721741 96.88569641 109.81971741 97.26069641 C108.33471741 96.27069641 108.33471741 96.27069641 106.81971741 95.26069641 C106.15971741 96.91069641 105.49971741 98.56069641 104.81971741 100.26069641 C104.57221741 99.72444641 104.32471741 99.18819641 104.06971741 98.63569641 C101.20243876 92.99668121 101.20243876 92.99668121 96.56971741 88.88569641 C91.52844907 87.73995361 87.45554567 87.75736464 82.56971741 89.26069641 C78.80235399 92.00059708 77.06927094 94.78248282 75.81971741 99.26069641 C75.50288931 103.90493264 76.18466539 107.23147417 78.63221741 111.19819641 C82.2211109 114.58201028 85.18883394 115.50036351 90.06971741 115.88569641 C90.96174866 115.96046204 91.85377991 116.03522766 92.77284241 116.11225891 C93.44831116 116.16124329 94.12377991 116.21022766 94.81971741 116.26069641 C93.82971741 118.24069641 93.82971741 118.24069641 92.81971741 120.26069641 C93.80971741 121.74569641 93.80971741 121.74569641 94.81971741 123.26069641 C92.18721353 124.57694835 91.01792685 124.00883299 88.19471741 123.32319641 C87.37745178 123.12854797 86.56018616 122.93389954 85.71815491 122.73335266 C84.77842834 122.49938782 84.77842834 122.49938782 83.81971741 122.26069641 C85.41127474 127.13896089 88.21849682 130.82878652 91.25721741 134.88569641 C91.74770569 135.55343079 92.23819397 136.22116516 92.74354553 136.90913391 C94.95783595 139.89738009 97.13660108 142.67419385 99.81971741 145.26069641 C100.14971741 144.60069641 100.47971741 143.94069641 100.81971741 143.26069641 C102.13971741 143.26069641 103.45971741 143.26069641 104.81971741 143.26069641 C106.22085356 145.2137953 107.55311208 147.21778459 108.81971741 149.26069641 C111.73736741 151.20579641 113.44509026 151.71345958 116.81971741 152.26069641 C117.0050209 165.08209064 117.14719609 177.90316675 117.23421478 190.72562695 C117.27597857 196.67961077 117.3326303 202.63267904 117.42323303 208.58613586 C117.51011402 214.33094597 117.55798256 220.07487519 117.57873535 225.82029152 C117.59352532 228.01288539 117.62240775 230.20543064 117.66555786 232.39764977 C117.7235905 235.46788805 117.73163274 238.53448096 117.72792053 241.60517883 C117.77106384 242.96679893 117.77106384 242.96679893 117.81507874 244.35592651 C117.78173863 246.90213967 117.68454171 248.8630517 116.81971741 251.26069641 C114.86640257 253.02858226 112.99791089 254.15475609 110.63544464 255.3110857 C108.64220411 256.12795464 108.64220411 256.12795464 107.81971741 258.26069641 C107.28853488 263.18066569 107.06866188 267.03397238 109.69471741 271.32319641 C113.2746647 274.587266 115.87857538 274.53968216 120.56190491 274.47944641 C123.65679896 274.17959508 125.45889162 273.26382132 127.81971741 271.26069641 C129.9743854 267.6898862 130.12438707 264.66137579 130.28065491 260.57710266 C131.07115135 257.18025927 132.27686594 255.66348602 134.81971741 253.26069641 C137.75837526 252.64359739 140.58350575 252.78724802 143.56971741 252.94819641 C144.36249084 252.970755 145.15526428 252.9933136 145.97206116 253.01655579 C147.92209361 253.0752917 149.87115052 253.16496987 151.81971741 253.26069641 C151.91870356 258.1719323 151.99123987 263.08258579 152.03944397 267.99458313 C152.05954133 269.66493343 152.08682424 271.33521354 152.12147522 273.00532532 C152.1700786 275.40833362 152.19270396 277.81041075 152.21034241 280.21382141 C152.23098755 280.95875854 152.25163269 281.70369568 152.27290344 282.47120667 C152.27432939 285.77703876 152.17775399 287.79304692 150.13703918 290.45852661 C147.28863635 292.67371555 145.86495633 292.76179516 142.28846741 292.7624054 C140.62654358 292.77647682 140.62654358 292.77647682 138.93104553 292.79083252 C137.73930725 292.77959854 136.54756897 292.76836456 135.31971741 292.75679016 C134.09188538 292.75824539 132.86405334 292.75970062 131.59901428 292.76119995 C129.00328702 292.75954009 126.40755 292.74796933 123.81190491 292.72724915 C119.83491787 292.69830703 115.85926432 292.70663725 111.88221741 292.71968079 C109.36137758 292.71344317 106.84054198 292.70505205 104.31971741 292.69429016 C103.12797913 292.6972258 101.93624084 292.70016144 100.70838928 292.70318604 C99.60044006 292.69050186 98.49249084 292.67781769 97.35096741 292.66474915 C96.37708069 292.65934616 95.40319397 292.65394318 94.39979553 292.64837646 C91.30311629 292.18307242 90.06995967 291.41943398 87.81971741 289.26069641 C87.37056828 286.99473953 87.37056828 286.99473953 87.44204712 284.28712463 C87.46670044 282.74524223 87.46670044 282.74524223 87.49185181 281.17221069 C87.54888527 279.48012733 87.54888527 279.48012733 87.60707092 277.75386047 C87.63046539 276.56451401 87.65385986 275.37516754 87.67796326 274.14978027 C87.72901345 271.55674513 87.78786329 268.9638548 87.85347176 266.37114716 C87.95546149 262.23762495 88.00807489 258.10438553 88.04943848 253.96986389 C88.06029467 252.91887508 88.06029467 252.91887508 88.07137018 251.84665418 C88.08612949 250.41279697 88.10079589 248.9789388 88.11537158 247.54507971 C88.21560307 237.92632014 88.34847987 228.31058063 88.61146545 218.69477844 C90.84827791 174.59444473 90.84827791 174.59444473 71.04212952 136.7245636 C70.14944366 135.79817078 69.25675781 134.87177795 68.33702087 133.91731262 C63.08423641 128.37382827 58.52143087 123.05351829 57.81971741 115.26069641 C58.80775452 112.80708313 58.80775452 112.80708313 60.34706116 110.44038391 C60.89169006 109.57542297 61.43631897 108.71046204 61.99745178 107.81929016 C62.86853577 106.49091125 62.86853577 106.49091125 63.75721741 105.13569641 C64.89915587 103.36728668 66.03362156 101.59402285 67.15956116 99.81538391 C67.66866028 99.03662903 68.1777594 98.25787415 68.70228577 97.45552063 C70.12218708 95.07707932 70.12218708 95.07707932 69.81971741 91.26069641 C68.51198039 89.08985297 67.19134761 87.10468003 65.69471741 85.07319641 C64.92901428 84.00714172 64.16331116 82.94108704 63.37440491 81.84272766 C62.9645636 81.2740094 62.55472229 80.70529114 62.13246155 80.11933899 C60.16390217 77.33216351 58.28871842 74.48489939 56.40370178 71.64082336 C53.68260457 67.55204767 50.90606331 63.5012899 48.13221741 59.44819641 C47.56438538 58.61610657 46.99655334 57.78401672 46.41151428 56.92671204 C45.86172913 56.12298157 45.31194397 55.3192511 44.74549866 54.49116516 C44.25476868 53.77339905 43.7640387 53.05563293 43.25843811 52.31611633 C41.82146565 50.26319403 40.3344859 48.25670924 38.81971741 46.26069641 C36.34471741 46.75569641 36.34471741 46.75569641 33.81971741 47.26069641 C42.48253111 61.23747605 42.48253111 61.23747605 51.92909241 74.68647766 C54.14156076 77.69890874 56.24370972 80.77858039 58.31971741 83.88569641 C58.99002991 84.88858704 59.66034241 85.89147766 60.35096741 86.92475891 C61.81971741 89.26069641 61.81971741 89.26069641 61.81971741 90.26069641 C54.20748248 91.67937176 46.29857554 92.71982514 38.81971741 90.26069641 C32.63895309 85.42440763 29.09983293 78.08162716 25.45887756 71.27583313 C23.42666237 67.53769527 21.17111025 63.98008287 18.8653717 60.40644836 C17.4162292 58.16028892 16.0060031 55.89397358 14.60096741 53.62007141 C12.08522237 49.60908077 9.38038911 45.7499614 6.6532135 41.8808136 C-10.98965046 16.66866766 -10.98965046 16.66866766 -9.96543884 4.70991516 C-8.3437511 -0.34878242 -4.60980229 0.00839179 0 0 Z " fill="#031011" transform="translate(18.180282592773438,2.7393035888671875)"/>
<path d="M0 0 C8.57079169 -0.04513501 17.14149142 -0.08184917 25.71236992 -0.10362434 C29.69191773 -0.11407386 33.67138021 -0.12825422 37.65087891 -0.15087891 C41.48933886 -0.17256585 45.32771659 -0.18455982 49.16623306 -0.18975449 C50.63270487 -0.19345773 52.09917205 -0.200689 53.56560898 -0.21146011 C55.61529106 -0.22592019 57.66463082 -0.22798029 59.71435547 -0.22705078 C60.88239716 -0.231492 62.05043884 -0.23593323 63.25387573 -0.24050903 C66 0 66 0 68 2 C68.25396729 4.42895508 68.25396729 4.42895508 68.25878906 7.51953125 C68.26509338 8.67412842 68.27139771 9.82872559 68.27789307 11.01831055 C68.2738446 12.27039307 68.26979614 13.52247559 68.265625 14.8125 C68.26753845 16.09229736 68.2694519 17.37209473 68.27142334 18.69067383 C68.27437382 21.40092793 68.27007955 24.11105027 68.26074219 26.82128906 C68.24934753 30.29849231 68.25590743 33.77538682 68.26788712 37.25257874 C68.27684425 40.56424404 68.27057635 43.87582591 68.265625 47.1875 C68.26967346 48.43958252 68.27372192 49.69166504 68.27789307 50.98168945 C68.26843658 52.71358521 68.26843658 52.71358521 68.25878906 54.48046875 C68.25719788 55.50035889 68.25560669 56.52024902 68.25396729 57.57104492 C68 60 68 60 66 62 C62.87645011 62.19904271 59.84151456 62.27260863 56.71679688 62.25878906 C55.27277245 62.26404602 55.27277245 62.26404602 53.79957581 62.26940918 C50.60589463 62.27823778 47.41243357 62.27237333 44.21875 62.265625 C42.00679481 62.26697132 39.79483991 62.26891158 37.58288574 62.27142334 C32.94243559 62.27437613 28.30206232 62.27007195 23.66162109 62.26074219 C17.70256175 62.24934761 11.74368255 62.25590625 5.78462982 62.26788712 C1.21570469 62.27510151 -3.35317748 62.27281972 -7.92210388 62.26763153 C-10.11982749 62.26629387 -12.31755494 62.2679468 -14.51527405 62.27259064 C-17.582554 62.27764894 -20.64953899 62.26995539 -23.71679688 62.25878906 C-24.63218735 62.26283752 -25.54757782 62.26688599 -26.4907074 62.27105713 C-32.77147258 62.22852742 -32.77147258 62.22852742 -35 60 C-35 52.74 -35 45.48 -35 38 C-15.86 38 3.28 38 23 38 C22.01 38.495 22.01 38.495 21 39 C21 40.32 21 41.64 21 43 C21.82242188 42.6596875 22.64484375 42.319375 23.4921875 41.96875 C27.54606226 40.84919439 31.00962881 41.06479377 35.125 41.5 C41.36196764 42.32203854 41.36196764 42.32203854 47 40 C50.11772233 36.32554153 50.57389026 32.89198779 50.42578125 28.22265625 C49.68913463 24.37722575 47.8404281 22.64225869 45 20 C41.42365687 18.80788562 38.75935317 18.74073426 35 19 C32.21692394 20.33542672 32.21692394 20.33542672 30 22 C29.01 22.495 29.01 22.495 28 23 C27.45633789 22.5155542 26.91267578 22.0311084 26.35253906 21.53198242 C23.49194109 19.6691501 21.75127785 19.57849143 18.359375 19.48828125 C17.28945312 19.45283203 16.21953125 19.41738281 15.1171875 19.38085938 C14.00601563 19.35830078 12.89484375 19.33574219 11.75 19.3125 C10.62335938 19.27833984 9.49671875 19.24417969 8.3359375 19.20898438 C5.55764046 19.12657726 2.77883601 19.06161028 0 19 C0 12.73 0 6.46 0 0 Z " fill="#010F11" transform="translate(221,218)"/>
<path d="M0 0 C1.051875 -0.00515625 2.10375 -0.0103125 3.1875 -0.015625 C6 0.25 6 0.25 9 2.25 C9.28631983 4.97180044 9.37831034 7.46520901 9.34057617 10.18798828 C9.34123329 11.41737625 9.34123329 11.41737625 9.34190369 12.67160034 C9.33980906 15.38807778 9.31644665 18.10394253 9.29296875 20.8203125 C9.28737518 22.70075137 9.28310396 24.5811946 9.28010559 26.4616394 C9.26863795 31.4167279 9.23915435 36.3715536 9.20599365 41.32653809 C9.17533404 46.3804163 9.16160906 51.43433689 9.14648438 56.48828125 C9.11428643 66.40896979 9.06306699 76.32946306 9 86.25 C9.73249466 86.24333817 10.46498932 86.23667633 11.21968079 86.22981262 C18.12056803 86.16971767 25.0214162 86.12403383 31.92249775 86.09456348 C35.47049936 86.07890307 39.01828487 86.05765849 42.56616211 86.02368164 C46.64438967 85.98486993 50.72239001 85.97029398 54.80078125 85.95703125 C56.07585037 85.94154739 57.35091949 85.92606354 58.66462708 85.91011047 C59.84562485 85.90988388 61.02662262 85.90965729 62.2434082 85.90942383 C63.28487503 85.90276199 64.32634186 85.89610016 65.39936829 85.88923645 C68 86.25 68 86.25 69.83268738 87.58183289 C71.67338406 90.21231046 71.43394192 92.59042308 71.4375 95.75 C71.45683594 96.8946875 71.47617188 98.039375 71.49609375 99.21875 C71 102.25 71 102.25 69.41322327 103.91618347 C66.12360156 105.7343956 63.64446276 105.6241611 59.89233398 105.62231445 C59.18455811 105.62596512 58.47678223 105.62961578 57.74755859 105.63337708 C55.41349115 105.64146781 53.08012111 105.62788671 50.74609375 105.61328125 C49.12231954 105.61276252 47.4985447 105.61328072 45.87477112 105.61479187 C42.4744426 105.61470222 39.07435152 105.60428595 35.67407227 105.58618164 C31.31368027 105.56347657 26.95363459 105.56295434 22.59319973 105.56969929 C19.24148984 105.57303892 15.88985904 105.56640961 12.53816414 105.55657005 C10.9301908 105.55271901 9.32220866 105.55156944 7.71423149 105.5531559 C5.46874054 105.55352635 3.22369551 105.54091291 0.97827148 105.5246582 C-0.29983902 105.52005081 -1.57794952 105.51544342 -2.89479065 105.51069641 C-6 105.25 -6 105.25 -9 103.25 C-9.37752342 101.43213654 -9.37752342 101.43213654 -9.38095093 99.18859863 C-9.3894104 98.33891006 -9.39786987 97.4892215 -9.40658569 96.61378479 C-9.400513 95.67969284 -9.39444031 94.74560089 -9.38818359 93.78320312 C-9.39344055 92.80101303 -9.39869751 91.81882294 -9.40411377 90.80686951 C-9.41735774 87.54816966 -9.40856002 84.28995513 -9.3984375 81.03125 C-9.40045697 78.77445379 -9.40336734 76.51765822 -9.40713501 74.26086426 C-9.41156433 69.52622274 -9.40510767 64.79175076 -9.39111328 60.05712891 C-9.3740212 53.97692623 -9.38385912 47.89712077 -9.40183067 41.81693268 C-9.41265203 37.15534451 -9.40922973 32.4938511 -9.4014473 27.83226013 C-9.39944073 25.58987888 -9.40192047 23.34748913 -9.40888596 21.1051178 C-9.41647328 17.97544444 -9.40493423 14.84642157 -9.38818359 11.71679688 C-9.39425629 10.78270493 -9.40032898 9.84861298 -9.40658569 8.88621521 C-9.39812622 8.03652664 -9.38966675 7.18683807 -9.38095093 6.31140137 C-9.37981985 5.57103386 -9.37868877 4.83066635 -9.37752342 4.06786346 C-8.41428471 -0.57035593 -3.77439097 -0.01850192 0 0 Z " fill="#051113" transform="translate(18,175.75)"/>
<path d="M0 0 C1.78125 0.01953125 1.78125 0.01953125 4 1 C5.66263057 3.2100107 7.08976143 5.32667399 8.5 7.6875 C9.25997809 8.92084328 10.02039132 10.15391852 10.78125 11.38671875 C11.11189453 11.93545654 11.44253906 12.48419434 11.78320312 13.04956055 C13.06247964 15.17110835 13.06247964 15.17110835 15.04766846 17.6605072 C17.34827062 21.59572219 17.48543763 23.85426309 17.45410156 28.38232422 C17.45468567 29.09521103 17.45526978 29.80809784 17.45587158 30.54258728 C17.45310231 32.88046308 17.42206807 35.21703665 17.390625 37.5546875 C17.38315842 39.18278304 17.37746746 40.8108876 17.37347412 42.43899536 C17.35825043 46.710257 17.31899742 50.98096877 17.2746582 55.25201416 C17.23363459 59.61585046 17.21544802 63.97977618 17.1953125 68.34375 C17.15249927 76.89611296 17.08217679 85.44792459 17 94 C23.6 94 30.2 94 37 94 C37 88.39 37 82.78 37 77 C35.68 76.34 34.36 75.68 33 75 C29.78494267 70.17741401 29.55503499 66.60655906 30 61 C31.13781806 56.92281863 33.04942017 54.03032523 36 51 C41.26005147 48.06650975 45.1313354 47.44107956 51 48 C56.36490726 49.82406847 60.17620564 53.12004471 63 58 C64.64256106 63.33615075 64.54110917 67.60559432 62.0625 72.625 C61.381875 73.73875 60.70125 74.8525 60 76 C59.34 76 58.68 76 58 76 C58 88.21 58 100.42 58 113 C59.32 113.33 60.64 113.66 62 114 C63.92378647 116.47343975 64.00604986 117.85480341 63.875 121 C62.84308189 124.53800495 62.04332421 125.91772554 59 128 C55.37312728 128.45335909 53.03733514 128.56648798 49.796875 126.796875 C48 125 48 125 47.609375 122.51953125 C47.65578125 121.62621094 47.7021875 120.73289062 47.75 119.8125 C47.78609375 118.91144531 47.8221875 118.01039063 47.859375 117.08203125 C47.90578125 116.39496094 47.9521875 115.70789063 48 115 C49.98 114.01 49.98 114.01 52 113 C51.98428955 111.20598755 51.98428955 111.20598755 51.96826172 109.37573242 C51.93208595 104.94216907 51.90910834 100.50861879 51.89013672 96.07495117 C51.88007361 94.15533251 51.86642184 92.23572919 51.84912109 90.31616211 C51.82488636 87.55839248 51.81352008 84.80082536 51.8046875 82.04296875 C51.79436493 81.18350143 51.78404236 80.32403412 51.77340698 79.43852234 C51.77318039 78.23761711 51.77318039 78.23761711 51.77294922 77.01245117 C51.768508 76.3085173 51.76406677 75.60458344 51.75949097 74.87931824 C52 73 52 73 54 70 C54.61703539 65.94519599 54.32038101 64.45630023 51.9375 61.0625 C49.09522758 58.64684172 49.09522758 58.64684172 45.3125 59 C41.74460887 59.69383331 41.74460887 59.69383331 40 63 C39.43221845 67.7729048 39.43221845 67.7729048 41.5012207 71.85644531 C43.46874789 74.6704034 43.34513118 76.45142988 43.29296875 79.859375 C43.2784668 81.53193359 43.2784668 81.53193359 43.26367188 83.23828125 C43.23853516 84.39714844 43.21339844 85.55601562 43.1875 86.75 C43.16719727 88.51150391 43.16719727 88.51150391 43.14648438 90.30859375 C43.1111478 93.20619298 43.06180979 96.10286427 43 99 C37.05518819 99.04934399 31.11049491 99.08569282 25.16552734 99.10986328 C23.14206873 99.11993671 21.11862472 99.13359595 19.09521484 99.15087891 C16.19104411 99.17506847 13.28706539 99.18646949 10.3828125 99.1953125 C9.02024826 99.21079636 9.02024826 99.21079636 7.63015747 99.22659302 C6.78943695 99.22674408 5.94871643 99.22689514 5.08251953 99.22705078 C4.34083527 99.231492 3.599151 99.23593323 2.83499146 99.24050903 C1 99 1 99 -1 97 C-1.19367655 93.96188509 -1.26213126 91.01522094 -1.24291992 87.97631836 C-1.24481827 87.04128983 -1.24671661 86.10626129 -1.24867249 85.14289856 C-1.25238745 82.04179591 -1.24166655 78.9409257 -1.23046875 75.83984375 C-1.22927734 73.69275439 -1.22882371 71.5456645 -1.2290802 69.39857483 C-1.22751413 64.89515936 -1.21921449 60.39182324 -1.20581055 55.88842773 C-1.18881034 50.10194481 -1.18499642 44.31554912 -1.18575573 38.52904415 C-1.18548445 34.09484517 -1.18001017 29.66066545 -1.17275429 25.22647285 C-1.16956153 23.09211943 -1.16759881 20.95776381 -1.16686058 18.82340813 C-1.164704 15.84699625 -1.15597491 12.87067885 -1.14526367 9.89428711 C-1.14571686 9.00335358 -1.14617004 8.11242004 -1.14663696 7.19448853 C-1.114474 1.114474 -1.114474 1.114474 0 0 Z " fill="#041012" transform="translate(10,57)"/>
<path d="M0 0 C1.54389907 0.08040466 3.08820366 0.15338357 4.6328125 0.21875 C8.39849971 0.38036748 12.1073476 0.69138683 15.875 1 C15.875 8.26 15.875 15.52 15.875 23 C7.295 23 -1.285 23 -10.125 23 C-10.125 38.51 -10.125 54.02 -10.125 70 C4.395 70 18.915 70 33.875 70 C33.875 76.27 33.875 82.54 33.875 89 C13.745 89 -6.385 89 -27.125 89 C-27.52608809 71.67299437 -27.52608809 71.67299437 -27.61328125 64.1875 C-27.67266858 59.11349647 -27.74227785 54.0413262 -27.87939453 48.96875 C-28.83414791 12.59813617 -28.83414791 12.59813617 -20.40478516 3.33203125 C-14.50558206 -1.58492868 -7.17663996 -0.65410476 0 0 Z " fill="#020F11" transform="translate(180.125,148)"/>
<path d="M0 0 C1.32 0.66 2.64 1.32 4 2 C4.48125031 4.6782626 4.30884829 6.46648307 2.93945312 8.83203125 C1.42839152 10.9338371 -0.14114312 12.97209202 -1.75 15 C-2.28882813 15.69867188 -2.82765625 16.39734375 -3.3828125 17.1171875 C-5.67016753 20.0740123 -7.98867116 22.98648684 -10.390625 25.8515625 C-12.23731564 27.86940895 -12.23731564 27.86940895 -12 30.375 C-10.68396055 33.82960357 -8.86054616 36.80218629 -7 40 C-5.33122869 44.45005683 -5.28213779 49.01969045 -6.90625 53.5 C-10.14530891 60.47643457 -13.60443911 64.62257408 -20.6875 67.875 C-26.51621112 69.81418878 -32.6642928 69.41908899 -38.3046875 67.01953125 C-43.94970988 63.72837669 -48.4422822 59.59598535 -50.375 53.1875 C-51.74651964 46.35602598 -50.75431981 39.89964541 -47 34 C-39.27407792 25.23003439 -39.27407792 25.23003439 -33.95678711 24.85644531 C-31.67307319 25.00147522 -29.40255661 25.21676348 -27.125 25.4375 C-20.76605587 25.78030284 -20.76605587 25.78030284 -15.29296875 22.91796875 C-13.25229502 20.04009555 -11.61944814 17.1322497 -10 14 C-8.75573789 12.16915718 -7.48599912 10.35528377 -6.1875 8.5625 C-5.37345703 7.38880859 -5.37345703 7.38880859 -4.54296875 6.19140625 C-3.0675643 4.09595841 -1.5486996 2.04167905 0 0 Z " fill="#091313" transform="translate(94,174)"/>
<path d="M0 0 C5.91409804 4.63537414 5.91409804 4.63537414 6.69921875 8.92578125 C6.96294348 14.33668511 5.98054193 17.6350078 2.3125 21.8125 C-2.68399469 25.60294425 -9.76817112 23.74266641 -15.59765625 23.03515625 C-17.97153501 22.78223833 -20.30203566 22.73554954 -22.6875 22.8125 C-23.0175 23.4725 -23.3475 24.1325 -23.6875 24.8125 C-24.1825 23.3275 -24.1825 23.3275 -24.6875 21.8125 C-24.3575 21.1525 -24.0275 20.4925 -23.6875 19.8125 C-23.0275 19.8125 -22.3675 19.8125 -21.6875 19.8125 C-22.1825 18.6678125 -22.1825 18.6678125 -22.6875 17.5 C-23.6875 14.8125 -23.6875 14.8125 -23.6875 11.8125 C-35.61396013 11.80420359 -47.53988261 11.82795452 -59.46618271 11.8927784 C-65.00393678 11.92186774 -70.54126636 11.93985872 -76.07910156 11.93261719 C-81.42215435 11.9260365 -86.76436739 11.94843743 -92.1072464 11.99105453 C-94.14698549 12.00220821 -96.18680951 12.00286562 -98.22655487 11.99292374 C-101.08133358 11.98079115 -103.93353331 12.00575782 -106.78808594 12.03955078 C-107.63397278 12.02732986 -108.47985962 12.01510895 -109.35137939 12.0025177 C-111.62412749 12.05109236 -113.51529264 12.13981233 -115.6875 12.8125 C-118.30426842 15.6848343 -118.30426842 15.6848343 -119.6875 18.8125 C-121.3375 18.4825 -122.9875 18.1525 -124.6875 17.8125 C-124.76857583 15.87568839 -124.82672475 13.9379066 -124.875 12 C-124.90980469 10.92105469 -124.94460937 9.84210938 -124.98046875 8.73046875 C-124.6875 5.8125 -124.6875 5.8125 -123.36328125 3.92578125 C-121.6875 2.8125 -121.6875 2.8125 -118.6875 2.8125 C-118.6875 3.8025 -118.6875 4.7925 -118.6875 5.8125 C-87.0075 5.8125 -55.3275 5.8125 -22.6875 5.8125 C-22.3575 4.4925 -22.0275 3.1725 -21.6875 1.8125 C-18.6875 1.8125 -18.6875 1.8125 -15.6875 2.8125 C-15.254375 2.338125 -14.82125 1.86375 -14.375 1.375 C-10.4049633 -2.30095991 -4.72918254 -2.0896388 0 0 Z " fill="#04100F" transform="translate(265.6875,237.1875)"/>
<path d="M0 0 C2.49543299 0.08316816 4.98428704 0.22068637 7.47709656 0.36100769 C9.17941281 0.41623458 10.88190068 0.4664161 12.58451843 0.51139832 C16.74047044 0.63215306 20.88814261 0.82159159 25.03959656 1.04850769 C24.70959656 3.02850769 24.37959656 5.00850769 24.03959656 7.04850769 C23.12669861 7.04214294 22.21380066 7.0357782 21.27323914 7.02922058 C17.87083549 7.0220804 14.47158577 7.04619579 11.06962585 7.0912323 C9.60028309 7.10433554 8.13077529 7.10513937 6.66142273 7.09318542 C-1.63655353 6.70629488 -1.63655353 6.70629488 -9.07099915 9.5834198 C-10.99781009 12.17857108 -12.02387108 14.22342842 -11.77290344 17.48600769 C-11.50477844 18.33163269 -11.23665344 19.17725769 -10.96040344 20.04850769 C-10.84642363 22.72185238 -10.91651105 25.37107168 -10.96040344 28.04850769 C-10.96040344 28.70850769 -10.96040344 29.36850769 -10.96040344 30.04850769 C-10.33391907 29.07268738 -9.70743469 28.09686707 -9.06196594 27.09147644 C-8.23645857 25.80631155 -7.41093699 24.52115577 -6.58540344 23.23600769 C-6.17290344 22.59341003 -5.76040344 21.95081238 -5.33540344 21.28874207 C-3.56225853 18.5289278 -1.78005206 15.77798061 0.03959656 13.04850769 C3.81009684 12.35733637 7.65070569 12.53925962 11.47709656 12.54850769 C12.53992859 12.52014832 13.60276062 12.49178894 14.69779968 12.46257019 C17.57015606 12.455303 20.21774968 12.50935309 23.03959656 13.04850769 C25.33209495 15.53036887 26.03959656 16.70155673 26.03959656 20.04850769 C18.44959656 20.04850769 10.85959656 20.04850769 3.03959656 20.04850769 C2.37959656 21.69850769 1.71959656 23.34850769 1.03959656 25.04850769 C0.04281484 26.57870233 -1.00260857 28.07792117 -2.08540344 29.54850769 C-5.80473728 34.71035046 -9.04024862 40.07629928 -12.26118469 45.55632019 C-12.82192688 46.37874207 -13.38266907 47.20116394 -13.96040344 48.04850769 C-14.62040344 48.04850769 -15.28040344 48.04850769 -15.96040344 48.04850769 C-18.08540344 40.42350769 -18.08540344 40.42350769 -16.96040344 37.04850769 C-18.13602844 37.11038269 -19.31165344 37.17225769 -20.52290344 37.23600769 C-26.09061742 37.21629897 -30.17596469 35.60417224 -34.39790344 31.92350769 C-36.58738389 27.89486366 -36.75080527 24.53799008 -35.96040344 20.04850769 C-33.90371623 16.00858639 -32.21859286 13.634741 -27.96040344 12.04850769 C-26.35072896 12.18062503 -24.74521411 12.37203995 -23.14790344 12.61100769 C-20.5366763 12.81483073 -20.5366763 12.81483073 -17.96040344 12.04850769 C-16.47815256 9.56291653 -16.47815256 9.56291653 -15.28852844 6.55632019 C-11.30227003 -0.16835741 -7.21153086 -0.0771985 0 0 Z " fill="#F59608" transform="translate(218.9604034423828,20.951492309570313)"/>
<path d="M0 0 C2.475 0.99 2.475 0.99 5 2 C4.39098894 4.98823075 3.46247475 7.11844081 1.77734375 9.65234375 C1.32456055 10.34021973 0.87177734 11.0280957 0.40527344 11.73681641 C-0.0790918 12.46304199 -0.56345703 13.18926758 -1.0625 13.9375 C-2.05912266 15.46449868 -3.05521116 16.99184611 -4.05078125 18.51953125 C-5.86140688 21.28107368 -7.69276238 24.02659901 -9.54296875 26.76171875 C-10.27929157 27.8823885 -11.01500986 29.00345577 -11.75 30.125 C-12.40484375 31.09695312 -13.0596875 32.06890625 -13.734375 33.0703125 C-15.33570843 36.77710285 -14.87114959 39.11854461 -14 43 C-10.535 42.505 -10.535 42.505 -7 42 C-7.47550561 43.48034764 -7.95551216 44.95925021 -8.4375 46.4375 C-8.70433594 47.26121094 -8.97117188 48.08492187 -9.24609375 48.93359375 C-10 51 -10 51 -11 52 C15.07 52.33 41.14 52.66 68 53 C68 53.33 68 53.66 68 54 C41.93 54 15.86 54 -11 54 C-11.66 55.98 -12.32 57.96 -13 60 C-14.47488182 61.77792639 -15.9978621 63.51660807 -17.55639648 65.22167969 C-23.80516273 72.8993479 -23.2430085 80.96165482 -23.09765625 90.453125 C-23.10332041 92.20719056 -23.11294596 93.96124734 -23.12632751 95.715271 C-23.15076942 100.29265746 -23.12203064 104.86816246 -23.08154297 109.44537354 C-23.04972415 114.13161275 -23.06912254 118.81762374 -23.08398438 123.50390625 C-23.10561799 132.66975425 -23.07097252 141.83443335 -23 151 C-24.98 151.99 -26.96 152.98 -29 154 C-29 124.96 -29 95.92 -29 66 C-27.02 65.01 -25.04 64.02 -23 63 C-18.89102294 59.33523667 -18.23301583 55.72730548 -17.89453125 50.4375 C-18.08250772 46.09315501 -19.84519076 43.28312138 -22.6875 40.125 C-23.120625 39.75375 -23.55375 39.3825 -24 39 C-22.50151512 33.04448316 -19.24856779 28.67864995 -15.75 23.75 C-11.67345002 17.91208119 -7.67709297 12.10215995 -4.1484375 5.91015625 C-2.89547463 3.82614659 -1.48756616 1.9217979 0 0 Z " fill="#030C0B" transform="translate(170,89)"/>
<path d="M0 0 C4.60744148 1.80291188 6.56855621 4.76748674 9 9 C9 9.66 9 10.32 9 11 C13.64530679 10.93115528 18.28971059 10.84320696 22.93432617 10.73754883 C24.51430243 10.70429812 26.09439752 10.67626654 27.67456055 10.65356445 C29.94631579 10.62001984 32.21698203 10.56770773 34.48828125 10.51171875 C35.19463211 10.50532883 35.90098297 10.4989389 36.6287384 10.49235535 C40.52709475 10.40823022 40.52709475 10.40823022 43.82104492 8.52270508 C44.40462769 7.76896606 44.40462769 7.76896606 45 7 C47.375 6.125 47.375 6.125 50 6 C52.83713564 7.38557787 54.77001704 8.77001704 57 11 C57.48884751 14.6663563 57.21967218 16.57896166 55.5 19.875 C52.85528897 22.12300438 52.23504139 22.36639795 48.9375 22.5 C45 22 45 22 43 20.625 C42 19 42 19 42 17 C30.78 17 19.56 17 8 17 C7.67 18.32 7.34 19.64 7 21 C3.86523248 24.54723693 1.74926496 26.5790854 -3.015625 27.30859375 C-7.56927907 27.57130456 -10.3394332 27.25431563 -13.9375 24.3125 C-16.53200462 21.73003484 -18.30005958 19.67468723 -19 16 C-19 9.80127799 -17.66098904 6.86529285 -13.47265625 2.34765625 C-9.68854508 -1.11525715 -4.83471383 -0.41244004 0 0 Z " fill="#091211" transform="translate(214,180)"/>
<path d="M0 0 C2.77269553 2.53159157 3.63629823 3.89019665 5.15234375 7.19140625 C7.74957161 12.55254972 10.88602037 17.32630726 14.3125 22.1875 C15.4158969 23.77176481 16.51876361 25.35639901 17.62109375 26.94140625 C18.43707031 28.10990112 18.43707031 28.10990112 19.26953125 29.30200195 C20.81924544 31.54432716 22.33495508 33.80553298 23.83984375 36.078125 C27.13900256 41.05156484 30.56451116 45.93262822 34 50.8125 C36.29798988 54.07896332 38.59085184 57.34884182 40.875 60.625 C41.31038086 61.24455566 41.74576172 61.86411133 42.19433594 62.50244141 C44.875 66.39140831 44.875 66.39140831 44.875 68.625 C41.905 69.615 41.905 69.615 38.875 70.625 C28.42308198 55.48508933 28.42308198 55.48508933 24 48.8125 C20.40096746 43.39901745 16.77386908 38.00502883 13.125 32.625 C12.5695752 31.79895264 12.01415039 30.97290527 11.44189453 30.12182617 C8.83722566 26.29363282 6.3526418 22.73124316 2.875 19.625 C2.441875 20.099375 2.00875 20.57375 1.5625 21.0625 C-0.98551326 23.42177154 -3.07849703 23.62155534 -6.5 23.875 C-11.13068692 23.55564228 -13.42328614 22.08361188 -16.875 19.125 C-19.73117912 15.69758506 -19.41722982 11.86233241 -19.125 7.625 C-17.60507896 4.44040354 -15.84204041 1.88920034 -13.125 -0.375 C-8.3397468 -1.9700844 -4.65404181 -2.0477784 0 0 Z " fill="#F69709" transform="translate(54.125,19.375)"/>
<path d="M0 0 C3.74369364 2.22598 6.35686123 5.46372245 8.3125 9.375 C8.93545139 14.74128128 9.2460761 19.79081707 6.1875 24.4375 C3.67623544 27.445261 1.17491395 28.56658778 -2.6875 29.375 C-2.64109375 30.13425781 -2.5946875 30.89351562 -2.546875 31.67578125 C-2.49273437 33.16658203 -2.49273437 33.16658203 -2.4375 34.6875 C-2.39109375 35.67363281 -2.3446875 36.65976563 -2.296875 37.67578125 C-2.6875 40.375 -2.6875 40.375 -4.703125 42.23046875 C-5.35796875 42.60816406 -6.0128125 42.98585937 -6.6875 43.375 C-8.17578125 42.23046875 -8.17578125 42.23046875 -9.6875 40.375 C-9.98046875 37.67578125 -9.98046875 37.67578125 -9.875 34.6875 C-9.84792969 33.69363281 -9.82085937 32.69976562 -9.79296875 31.67578125 C-9.75816406 30.91652344 -9.72335938 30.15726563 -9.6875 29.375 C-10.574375 29.189375 -11.46125 29.00375 -12.375 28.8125 C-16.75825631 26.91033217 -18.63264363 24.63903001 -20.6875 20.375 C-22.39452452 15.19733998 -22.06842104 11.37102706 -19.625 6.5 C-14.87045804 -0.98448502 -8.2724694 -1.92383009 0 0 Z " fill="#081111" transform="translate(136.6875,34.625)"/>
<path d="M0 0 C4.45966381 3.04067987 6.2853405 6.50425448 8 11.5625 C10.00297786 17.39037342 14.01802919 22.05269093 17.75 26.875 C14.125 29.875 14.125 29.875 10.75 29.875 C9.36328125 28.34375 9.36328125 28.34375 8.0625 26.375 C7.62550781 25.7253125 7.18851563 25.075625 6.73828125 24.40625 C6.24908203 23.64828125 6.24908203 23.64828125 5.75 22.875 C5.28851563 23.2359375 4.82703125 23.596875 4.3515625 23.96875 C-0.41256423 27.35824728 -4.05078441 28.61622127 -9.91796875 28.30078125 C-14.30110065 27.50051094 -16.90036718 25.13155469 -20.0625 22.1875 C-22.28283749 17.86368488 -23.00051452 13.31206399 -21.5546875 8.6171875 C-19.77883181 4.82776316 -18.01243204 1.93826918 -14.25 -0.125 C-9.23972375 -1.79509208 -4.91956683 -1.70292698 0 0 Z " fill="#F69609" transform="translate(115.25,91.125)"/>
<path d="M0 0 C1.98 0.99 3.96 1.98 6 3 C6 32.37 6 61.74 6 92 C4.02 92.99 2.04 93.98 0 95 C0 63.65 0 32.3 0 0 Z " fill="#FA9A0D" transform="translate(123,158)"/>
<path d="M0 0 C1.65 0.66 3.3 1.32 5 2 C4.39098894 4.98823075 3.46247475 7.11844081 1.77734375 9.65234375 C1.32456055 10.34021973 0.87177734 11.0280957 0.40527344 11.73681641 C-0.0790918 12.46304199 -0.56345703 13.18926758 -1.0625 13.9375 C-2.05912266 15.46449868 -3.05521116 16.99184611 -4.05078125 18.51953125 C-5.86140688 21.28107368 -7.69276238 24.02659901 -9.54296875 26.76171875 C-10.27929157 27.8823885 -11.01500986 29.00345577 -11.75 30.125 C-12.73226562 31.58292969 -12.73226562 31.58292969 -13.734375 33.0703125 C-15.33570843 36.77710285 -14.87114959 39.11854461 -14 43 C-10.535 42.505 -10.535 42.505 -7 42 C-7.47550561 43.48034764 -7.95551216 44.95925021 -8.4375 46.4375 C-8.70433594 47.26121094 -8.97117188 48.08492187 -9.24609375 48.93359375 C-10 51 -10 51 -11 52 C15.07 52.33 41.14 52.66 68 53 C68 53.33 68 53.66 68 54 C41.93 54 15.86 54 -11 54 C-11.66 55.98 -12.32 57.96 -13 60 C-14.8125 62.4375 -14.8125 62.4375 -17 64 C-19.75 63.75 -19.75 63.75 -22 63 C-21.2884375 62.071875 -21.2884375 62.071875 -20.5625 61.125 C-18.407478 56.81495599 -17.86143961 52.803427 -18 48 C-19.36694279 44.24090731 -20.9613358 41.60456932 -24 39 C-22.50151512 33.04448316 -19.24856779 28.67864995 -15.75 23.75 C-11.67345002 17.91208119 -7.67709297 12.10215995 -4.1484375 5.91015625 C-2.89547463 3.82614659 -1.48756616 1.9217979 0 0 Z " fill="#0B1210" transform="translate(170,89)"/>
<path d="M0 0 C1.5 1.0625 1.5 1.0625 3 3 C3.43076923 9.13846154 3.43076923 9.13846154 2 12 C1.61667303 15.98660052 1.80697522 18.54375961 3.375 22.25 C6.9787485 26.02535557 10.87315546 27.26876736 16 28 C18.23233764 27.63651093 18.23233764 27.63651093 20 27 C20 27.66 20 28.32 20 29 C20.804375 29.268125 21.60875 29.53625 22.4375 29.8125 C23.283125 30.204375 24.12875 30.59625 25 31 C25.495 32.485 25.495 32.485 26 34 C18.82028926 37.62879089 12.91145213 39.03708049 5 37 C-0.97042758 34.44124532 -6.1997096 30.24868533 -8.78125 24.15625 C-10.71819506 17.73374795 -10.09473003 11.73682507 -7.625 5.5625 C-5.53783703 2.27120454 -3.66929224 1.22309741 0 0 Z " fill="#051012" transform="translate(53,205)"/>
<path d="M0 0 C5.91409804 4.63537414 5.91409804 4.63537414 6.69921875 8.92578125 C6.96294348 14.33668511 5.98054193 17.6350078 2.3125 21.8125 C-1.10260269 24.40326756 -4.51922404 24.17183413 -8.6875 23.8125 C-12.7844656 22.236744 -15.65350223 20.77344302 -17.6875 16.8125 C-18.73286779 12.18301406 -19.11500376 9.94538496 -17.4375 5.5 C-13.2233539 -0.97172436 -7.54370564 -3.33326528 0 0 Z " fill="#F59609" transform="translate(265.6875,237.1875)"/>
<path d="M0 0 C5.44819457 4.35855566 5.44819457 4.35855566 6.19921875 8.2578125 C6.55527703 12.92613215 5.98757946 15.63315761 2.9375 19.25 C-0.04495945 22.3621316 -1.4962095 23.19239246 -5.9375 23.5625 C-10.37873376 23.48189685 -12.84637021 22.28032702 -16.1875 19.25 C-18.4161913 15.43965682 -19.20117284 13.04302462 -19.125 8.625 C-18.07969324 4.86189565 -16.97916029 2.96411418 -14.1875 0.25 C-9.20787534 -2.50189784 -5.0075725 -2.74925549 0 0 Z " fill="#F4960A" transform="translate(267.1875,129.75)"/>
<path d="M0 0 C3.4275548 1.67894453 5.46244208 4.11186083 7.4375 7.375 C8.32177231 11.50160411 8.21312665 15.1039594 5.8828125 18.74609375 C3.44191757 21.7574937 1.72256484 23.81402397 -2.20703125 24.23828125 C-9.24770268 24.43884011 -9.24770268 24.43884011 -13 22.25 C-16.67916439 18.11094006 -17.49336702 14.70276511 -17.39453125 9.2578125 C-16.72202988 5.40924032 -14.79323112 3.66022012 -12 1 C-8.26836358 -0.86581821 -4.06325499 -0.55464677 0 0 Z " fill="#F59608" transform="translate(265,19)"/>
<path d="M0 0 C0.74086853 0.00719055 1.48173706 0.0143811 2.24505615 0.02178955 C3.02563385 0.0214975 3.80621155 0.02120544 4.61044312 0.02090454 C7.19693015 0.02230065 9.78313101 0.03787491 12.36956787 0.05352783 C14.16032758 0.05725697 15.95108933 0.06010441 17.74185181 0.06210327 C22.46014009 0.06974759 27.17830568 0.08940288 31.89654541 0.11151123 C36.70915059 0.13195251 41.52177556 0.14110131 46.33441162 0.15118408 C55.78108018 0.17264805 65.22765758 0.20679359 74.67425537 0.24884033 C74.01425537 2.22884033 73.35425537 4.20884033 72.67425537 6.24884033 C45.94425537 6.24884033 19.21425537 6.24884033 -8.32574463 6.24884033 C-6.88870854 0.50069596 -5.6758528 0.02308804 0 0 Z " fill="#E99009" transform="translate(171.32574462890625,130.75115966796875)"/>
<path d="M0 0 C3.2702574 2.11109685 6.2424884 4.4849768 8 8 C8.68128376 14.81283762 8.68128376 14.81283762 6.953125 17.82421875 C4.60832555 20.67246044 2.75392971 22.7898041 -0.98828125 23.23828125 C-5.05070018 23.36800555 -7.37166461 23.37432746 -10.9375 21.25 C-13.99092049 17.91899583 -14.87145424 16.15691184 -15.375 11.625 C-14.92831385 7.30703393 -13.7684289 5.30673452 -11 2 C-7.57368419 -0.59927406 -4.17728341 -0.56641131 0 0 Z " fill="#FA9704" transform="translate(69,209)"/>
<path d="M0 0 C4.875 4.625 4.875 4.625 6 8 C7.93618425 8.67156616 7.93618425 8.67156616 10 9 C10.66 9.33 11.32 9.66 12 10 C12 10.99 12 11.98 12 13 C10.02 13.99 8.04 14.98 6 16 C1 10.25 1 10.25 1 8 C-0.65 8.99 -2.3 9.98 -4 11 C-3.57847656 11.58265625 -3.15695313 12.1653125 -2.72265625 12.765625 C1.77294512 19.49316023 2.97235252 24.9545829 3 33 C2.34 33 1.68 33 1 33 C0.67 33.66 0.34 34.32 0 35 C-2.21875 34.8828125 -2.21875 34.8828125 -5 34 C-6.72187389 31.96559421 -8.09554397 30.10770917 -9.5 27.875 C-10.27800264 26.68707851 -11.05664385 25.49957498 -11.8359375 24.3125 C-12.55007812 23.219375 -13.26421875 22.12625 -14 21 C-15.03202099 19.61774564 -16.0712463 18.24075898 -17.125 16.875 C-17.74375 15.92625 -18.3625 14.9775 -19 14 C-18.67 13.01 -18.34 12.02 -18 11 C-14.7 11.66 -11.4 12.32 -8 13 C-8.66 12.01 -9.32 11.02 -10 10 C-7.77659224 5.55318449 -5.21302802 3.56445184 -1 1 C-0.67 0.67 -0.34 0.34 0 0 Z " fill="#081211" transform="translate(120,113)"/>
<path d="M0 0 C0 1.65 0 3.3 0 5 C-1.32 5.33 -2.64 5.66 -4 6 C-3.05125 6.598125 -2.1025 7.19625 -1.125 7.8125 C2 10 2 10 4 13 C3.77898833 19.18832685 3.77898833 19.18832685 1.32421875 21.74609375 C-1.76333902 23.41181819 -3.61918195 23.04464986 -7.0625 22.5625 C-11.82037433 21.77439414 -11.82037433 21.77439414 -16 24 C-18.89687467 19.48087551 -19.38633076 16.33622841 -18.5703125 11.1796875 C-17.35076667 6.51868358 -15.18032574 3.80476755 -11.25 1.125 C-7.22082236 -0.26971534 -4.24231479 -0.21943008 0 0 Z " fill="#0B1412" transform="translate(134,34)"/>
<path d="M0 0 C1.875 1.25 1.875 1.25 3 3 C3.56311766 6.70048746 3.2363575 8.54698146 1.5 11.875 C-1.14471103 14.12300438 -1.76495861 14.36639795 -5.0625 14.5 C-9 14 -9 14 -11 12.625 C-12 11 -12 11 -12 9 C-12.86802246 8.97494385 -13.73604492 8.9498877 -14.63037109 8.92407227 C-17.84713163 8.82900516 -21.06372849 8.72976797 -24.28027344 8.62768555 C-25.6731259 8.58434154 -27.06603131 8.54266604 -28.45898438 8.50268555 C-30.45976651 8.44497068 -32.46035859 8.38078131 -34.4609375 8.31640625 C-36.26763916 8.26141968 -36.26763916 8.26141968 -38.11083984 8.20532227 C-41 8 -41 8 -43 7 C-43 5.68 -43 4.36 -43 3 C-42.07662842 2.98541748 -41.15325684 2.97083496 -40.2019043 2.95581055 C-36.77422796 2.89473692 -33.34735338 2.8205839 -29.92016602 2.73754883 C-28.43720146 2.70430577 -26.95411056 2.67627177 -25.47094727 2.65356445 C-23.33815707 2.62000532 -21.20652388 2.56769362 -19.07421875 2.51171875 C-17.14968872 2.47244263 -17.14968872 2.47244263 -15.1862793 2.43237305 C-11.76929649 1.9686939 -11.09056819 1.56925544 -9 -1 C-5.17456525 -2.27514492 -3.66576992 -1.52740413 0 0 Z " fill="#040F10" transform="translate(268,188)"/>
<path d="M0 0 C4.0743356 0.84881992 5.54405875 2.30225596 8 5.625 C8.625 8.625 8.625 8.625 8 11.625 C5.50915752 14.99496335 4.11411135 16.44310427 -0.0625 17.125 C-3 16.625 -3 16.625 -4.85839844 15.12573242 C-7.47577958 13.29159632 -9.03275684 13.20544312 -12.203125 13.11328125 C-13.1828125 13.07783203 -14.1625 13.04238281 -15.171875 13.00585938 C-16.69554687 12.97202148 -16.69554687 12.97202148 -18.25 12.9375 C-19.28125 12.90333984 -20.3125 12.86917969 -21.375 12.83398438 C-23.91655812 12.75161907 -26.45777626 12.68243166 -29 12.625 C-27.125 7.75 -27.125 7.75 -26 6.625 C-22.26188984 6.48879356 -18.52969694 6.37703126 -14.7890625 6.37109375 C-10.34892962 6.2336955 -8.58193818 6.12987069 -5.109375 3.1171875 C-3 0.625 -3 0.625 0 0 Z " fill="#091412" transform="translate(264,77.375)"/>
<path d="M0 0 C2.4915904 3.7373856 2.45793285 5.57331583 2 10 C0.4375 12.875 0.4375 12.875 -2 15 C-5.91908586 16.14009771 -8.03158504 16.40888632 -11.8125 14.8125 C-15.09633835 12.09160536 -15.83811127 10.26812841 -16.375 6.0625 C-15.90107745 2.19213253 -14.81577986 0.66357554 -12 -2 C-7.41636308 -3.98211326 -4.23186565 -2.23570261 0 0 Z " fill="#061211" transform="translate(189,69)"/>
<path d="M0 0 C3.24006063 1.35002526 4.51973759 2.19956265 6.3125 5.1875 C6.539375 5.785625 6.76625 6.38375 7 7 C5.02 8.32 3.04 9.64 1 11 C0.62875 10.505 0.2575 10.01 -0.125 9.5 C-2.79160885 7.36671292 -4.67893663 7.64669539 -8 8 C-8.66 8.66 -9.32 9.32 -10 10 C-10 12.0095466 -9.99498275 14.02138222 -9.875 16.02734375 C-10 18 -10 18 -12 21 C-11.67 21.66 -11.34 22.32 -11 23 C-11.99 23.33 -12.98 23.66 -14 24 C-17.39210077 20.49847662 -18.73541809 17.75018934 -19.09375 12.984375 C-18.87118472 8.27340988 -16.46590297 5.5227204 -13.4375 2.125 C-9.38202244 -1.01799511 -4.8888538 -0.75087571 0 0 Z " fill="#081211" transform="translate(214,180)"/>
<path d="M0 0 C1.9375 1.0625 1.9375 1.0625 3 3 C3.76190476 9.85714286 3.76190476 9.85714286 1.375 13.4375 C-1.58928482 15.38768738 -3.44050856 16 -7 16 C-9.74716387 14.22960551 -11.53145922 12.93708156 -13 10 C-13.29123466 6.65080137 -13.36462337 4.64243165 -11.6875 1.6875 C-8.11758736 -1.88241264 -4.59506018 -0.98465575 0 0 Z " fill="#071111" transform="translate(142,133)"/>
<path d="M0 0 C1.32 0.66 2.64 1.32 4 2 C3.89300781 2.64066406 3.78601563 3.28132812 3.67578125 3.94140625 C2.82562855 10.07530368 3.09967089 13.53399514 6 19 C6.495 20.485 6.495 20.485 7 22 C4.03 22 1.06 22 -2 22 C-2.33 22.66 -2.66 23.32 -3 24 C-3.495 22.515 -3.495 22.515 -4 21 C-3.67 20.34 -3.34 19.68 -3 19 C-2.34 19 -1.68 19 -1 19 C-1.4495045 17.68445015 -1.90989716 16.37261642 -2.375 15.0625 C-2.63023437 14.33160156 -2.88546875 13.60070312 -3.1484375 12.84765625 C-3.85271413 10.81317884 -3.85271413 10.81317884 -6 10 C-6 9.01 -6 8.02 -6 7 C-25.14 6.67 -44.28 6.34 -64 6 C-64 5.67 -64 5.34 -64 5 C-43.54 5 -23.08 5 -2 5 C-1.67 3.68 -1.34 2.36 -1 1 C-0.67 0.67 -0.34 0.34 0 0 Z " fill="#0E1612" transform="translate(245,238)"/>
<path d="M0 0 C3 2.0625 3 2.0625 5 5 C5 8.51955419 4.63108355 10.84920059 2.9375 13.9375 C-0.27905997 15.70141999 -3.49385409 15.73924763 -7 15 C-9.5625 12.9375 -9.5625 12.9375 -11 10 C-10.93977486 6.50694211 -10.63658168 4.09633511 -8.875 1.0625 C-5.76581435 -0.69937187 -3.49155423 -0.48159369 0 0 Z " fill="#051011" transform="translate(111,97)"/>
<path d="M0 0 C2.375 1.625 2.375 1.625 4 4 C4 7.77684879 3.78395245 10.03513544 1.375 13 C-2.14974145 14.48410166 -4.36810976 14.05654989 -8 13 C-10.36604164 10.33820316 -11.04466185 8.93789883 -10.875 5.375 C-8.86342476 -0.08498993 -5.45911452 -1.68972592 0 0 Z " fill="#F29509" transform="translate(134,43)"/>
<path d="M0 0 C2.4375 1.625 2.4375 1.625 4 4 C3.85205998 7.6985004 3.64194427 9.35805573 1 12 C-0.875 12.30078125 -0.875 12.30078125 -3 12.3125 C-3.70125 12.32925781 -4.4025 12.34601563 -5.125 12.36328125 C-5.74375 12.24339844 -6.3625 12.12351563 -7 12 C-9.31282587 8.53076119 -9.42478586 7.07794425 -9 3 C-6.79244709 -0.67925486 -4.01747809 -0.57392544 0 0 Z " fill="#F69608" transform="translate(212,187)"/>
<path d="M0 0 C5.36443837 1.03712475 9.17236205 2.45736305 12.5 6.9375 C15.72390028 12.33441594 15.97911038 17.82711639 16 24 C11.92514474 20.29109048 8.90906543 15.91536188 5.75 11.4375 C5.19570312 10.66986328 4.64140625 9.90222656 4.0703125 9.11132812 C3.28527344 8.00241211 3.28527344 8.00241211 2.484375 6.87109375 C2.00709961 6.20005615 1.52982422 5.52901855 1.03808594 4.83764648 C0 3 0 3 0 0 Z " fill="#F1960F" transform="translate(101,124)"/>
<path d="M0 0 C3 0.25 3 0.25 5 2.25 C5.25 5.75 5.25 5.75 5 9.25 C3 11.25 3 11.25 0.0625 11.625 C-3 11.25 -3 11.25 -4.9375 9.5625 C-6.28233625 6.63550346 -6.03115662 5.26415011 -5 2.25 C-3 0.25 -3 0.25 0 0 Z " fill="#06100E" transform="translate(260,242.75)"/>
<path d="M0 0 C3 0.25 3 0.25 5 2.25 C5.333728 5.38704316 5.52849028 7.41554166 3.8125 10.125 C1.31963619 11.67229478 -0.11967335 11.75405716 -3 11.25 C-4.875 9.5625 -4.875 9.5625 -6 7.25 C-5.67747519 2.7346526 -4.81889451 0.40157454 0 0 Z " fill="#060F0E" transform="translate(196,39.75)"/>
<path d="M0 0 C3 0.25 3 0.25 5 2.25 C5.33302312 5.3804173 5.47671956 7.42898298 3.875 10.1875 C2 11.25 2 11.25 -1.0625 11.125 C-4 10.25 -4 10.25 -6 7.25 C-5.5601518 2.74155593 -4.87125629 0.40593802 0 0 Z " fill="#081012" transform="translate(261,134.75)"/>
<path d="M0 0 C6.6 0 13.2 0 20 0 C19.01 0.495 19.01 0.495 18 1 C17.67 2.32 17.34 3.64 17 5 C10.73 5 4.46 5 -2 5 C-1.34 3.35 -0.68 1.7 0 0 Z " fill="#040F11" transform="translate(238,84)"/>
<path d="M0 0 C2.9375 0.8125 2.9375 0.8125 4.9375 2.8125 C4.75 5.8125 4.75 5.8125 3.9375 8.8125 C0.9375 10.8125 0.9375 10.8125 -1.625 10.5625 C-4.0625 9.8125 -4.0625 9.8125 -6.0625 7.8125 C-6.4258156 4.97863833 -6.4193671 3.40727849 -4.9375 0.9375 C-3.0625 -0.1875 -3.0625 -0.1875 0 0 Z " fill="#0B120E" transform="translate(48.0625,25.1875)"/>
<path d="M0 0 C3.0625 0.3125 3.0625 0.3125 5 1.4375 C6.0625 3.3125 6.0625 3.3125 5.875 6.4375 C5.606875 7.38625 5.33875 8.335 5.0625 9.3125 C2.29999964 10.69375018 0.11518901 10.50329306 -2.9375 10.3125 C-4.9375 8.3125 -4.9375 8.3125 -5.1875 5.3125 C-4.84687504 1.2250005 -4.07761768 0.43378911 0 0 Z " fill="#0A1314" transform="translate(259.9375,25.6875)"/>
<path d="M0 0 C2.3125 1.5625 2.3125 1.5625 3.25 4.5 C3.3125 7.5625 3.3125 7.5625 1.3125 10.5625 C-1.6875 10.875 -1.6875 10.875 -4.6875 10.5625 C-6.6875 8.5625 -6.6875 8.5625 -7.0625 5.625 C-6.6875 2.5625 -6.6875 2.5625 -5 0.5625 C-2.6875 -0.4375 -2.6875 -0.4375 0 0 Z " fill="#0B1210" transform="translate(138.6875,260.4375)"/>
<path d="M0 0 C1.74627478 2.61941217 2.38722388 4.03824877 3 7 C-1.31772244 8.06378669 -5.50742256 8.1294216 -9.92578125 8.09765625 C-11.04716743 8.09553383 -11.04716743 8.09553383 -12.19120789 8.09336853 C-14.56501365 8.08779764 -16.93872303 8.0752506 -19.3125 8.0625 C-20.92773301 8.05748123 -22.5429675 8.05291899 -24.15820312 8.04882812 C-28.10553522 8.03869117 -32.05266047 8.0191103 -36 8 C-36 14.93 -36 21.86 -36 29 C-36.33 29 -36.66 29 -37 29 C-37 21.74 -37 14.48 -37 7 C-25.78 7 -14.56 7 -3 7 C-3 6.34 -3 5.68 -3 5 C-2.34 4.34 -1.68 3.68 -1 3 C-0.67 2.01 -0.34 1.02 0 0 Z " fill="#2F2C1B" transform="translate(248,142)"/>
<path d="M0 0 C0.33 0.66 0.66 1.32 1 2 C4.62885324 2.15149298 4.62885324 2.15149298 8 1 C7.88541307 2.43836751 7.75790884 3.87570966 7.625 5.3125 C7.55539063 6.11300781 7.48578125 6.91351563 7.4140625 7.73828125 C7 10 7 10 5 13 C2.525 12.01 2.525 12.01 0 11 C0 7.37 0 3.74 0 0 Z " fill="#111817" transform="translate(66,118)"/>
<path d="M0 0 C3.47132095 1.40929697 4.88093274 2.90605083 6.75 6.125 C7.39195313 7.21167969 7.39195313 7.21167969 8.046875 8.3203125 C8.51867187 9.15175781 8.51867187 9.15175781 9 10 C6.69 10.66 4.38 11.32 2 12 C0.35 10.02 -1.3 8.04 -3 6 C-2.01 6 -1.02 6 0 6 C-0.2784375 4.7934375 -0.2784375 4.7934375 -0.5625 3.5625 C-0.706875 2.716875 -0.85125 1.87125 -1 1 C-0.67 0.67 -0.34 0.34 0 0 Z " fill="#141B15" transform="translate(58,41)"/>
<path d="M0 0 C0.66 0 1.32 0 2 0 C2.94019354 3.99582254 3.39653373 6.18969194 1.5625 9.9375 C-2.10724583 12.89119787 -4.37937617 12.38505199 -9 12 C-9.33 11.34 -9.66 10.68 -10 10 C-9.278125 10.103125 -8.55625 10.20625 -7.8125 10.3125 C-4.78207658 10.22397685 -4.78207658 10.22397685 -2.1875 7.8125 C0.22397685 5.21792342 0.22397685 5.21792342 0.3125 2.1875 C0.209375 1.465625 0.10625 0.74375 0 0 Z " fill="#111711" transform="translate(113,100)"/>
<path d="M0 0 C0.66 0.99 1.32 1.98 2 3 C1.34 3 0.68 3 0 3 C0.66 3.66 1.32 4.32 2 5 C2.66 5 3.32 5 4 5 C4 5.66 4 6.32 4 7 C4.66 7.33 5.32 7.66 6 8 C3.69 8.33 1.38 8.66 -1 9 C-2.5625 7.25 -2.5625 7.25 -4 5 C-3.6875 2.75 -3.6875 2.75 -3 1 C-2.01 1.33 -1.02 1.66 0 2 C0 1.34 0 0.68 0 0 Z " fill="#141812" transform="translate(194,42)"/>
<path d="M0 0 C1.5625 1.6875 1.5625 1.6875 3 4 C2.6875 6.75 2.6875 6.75 2 9 C0 9 -2 9 -4 9 C-3.71125 8.443125 -3.4225 7.88625 -3.125 7.3125 C-1.9586747 4.91505355 -0.9660119 2.48403061 0 0 Z " fill="#040D0D" transform="translate(90,180)"/>
<path d="M0 0 C2 2 2 2 2.125 4.625 C2.08375 5.40875 2.0425 6.1925 2 7 C-1.06890187 8.53445094 -3.70094266 7.54984289 -7 7 C-4.66666667 4.66666667 -2.33333333 2.33333333 0 0 Z " fill="#181E15" transform="translate(200,26)"/>
<path d="M0 0 C0.99 0 1.98 0 3 0 C3 1.98 3 3.96 3 6 C1.02 6.33 -0.96 6.66 -3 7 C-2.25 2.25 -2.25 2.25 0 0 Z " fill="#0F1712" transform="translate(257,243)"/>
<path d="M0 0 C0.66 0.66 1.32 1.32 2 2 C1.34 3.32 0.68 4.64 0 6 C-0.66 6 -1.32 6 -2 6 C-1.34 4.02 -0.68 2.04 0 0 Z M-3 6 C-2.67 6.66 -2.34 7.32 -2 8 C-2.93446535 10.03144641 -3.93224776 12.03533587 -5 14 C-5.66 14 -6.32 14 -7 14 C-5.87548273 11.0280615 -4.77706209 8.66559313 -3 6 Z " fill="#151B13" transform="translate(183,16)"/>
<path d="M0 0 C2.31 0.33 4.62 0.66 7 1 C7.33 1.99 7.66 2.98 8 4 C7.34 4 6.68 4 6 4 C6 5.32 6 6.64 6 8 C5.01 7.67 4.02 7.34 3 7 C3 5.68 3 4.36 3 3 C2.01 2.67 1.02 2.34 0 2 C0 1.34 0 0.68 0 0 Z " fill="#111813" transform="translate(102,118)"/>
<path d="M0 0 C-1 3 -1 3 -2.9375 4 C-3.9584375 4.495 -3.9584375 4.495 -5 5 C-5.99 6.485 -5.99 6.485 -7 8 C-7.66 7.67 -8.32 7.34 -9 7 C-4.53191489 0 -4.53191489 0 0 0 Z " fill="#121811" transform="translate(187,92)"/>
<path d="M0 0 C0.66 0.33 1.32 0.66 2 1 C1.75 3.875 1.75 3.875 1 7 C-0.98 7.99 -0.98 7.99 -3 9 C-2.01 6.03 -1.02 3.06 0 0 Z " fill="#0D1409" transform="translate(209,43)"/>
<path d="M0 0 C1.2065625 0.0309375 1.2065625 0.0309375 2.4375 0.0625 C0.7875 2.0425 -0.8625 4.0225 -2.5625 6.0625 C-3.2225 5.7325 -3.8825 5.4025 -4.5625 5.0625 C-3.43829114 0.08386076 -3.43829114 0.08386076 0 0 Z " fill="#030D0C" transform="translate(260.5625,134.9375)"/>
<path d="M0 0 C0.66 0.33 1.32 0.66 2 1 C1.67 2.65 1.34 4.3 1 6 C-0.98 6 -2.96 6 -5 6 C-3.35 4.02 -1.7 2.04 0 0 Z " fill="#0C150F" transform="translate(57,38)"/>
<path d="M0 0 C0.66 0.66 1.32 1.32 2 2 C2.99 1.34 3.98 0.68 5 0 C5 3.10551666 4.4606285 4.35261084 3 7 C1.5 5.75 1.5 5.75 0 4 C0 2.68 0 1.36 0 0 Z " fill="#141916" transform="translate(255,138)"/>
<path d="M0 0 C0.66 0.99 1.32 1.98 2 3 C0.515 5.475 0.515 5.475 -1 8 C-1.99 7.67 -2.98 7.34 -4 7 C-2.68 4.69 -1.36 2.38 0 0 Z " fill="#151C15" transform="translate(150,69)"/>
<path d="M0 0 C0.66 0.33 1.32 0.66 2 1 C2 1.99 2 2.98 2 4 C-0.31 4 -2.62 4 -5 4 C-3 1 -3 1 0 0 Z " fill="#222518" transform="translate(262,15)"/>
<path d="M0 0 C1.74627478 2.61941217 2.38722388 4.03824877 3 7 C1.35 7 -0.3 7 -2 7 C-2.33 6.34 -2.66 5.68 -3 5 C-2.34 4.34 -1.68 3.68 -1 3 C-0.67 2.01 -0.34 1.02 0 0 Z " fill="#141A15" transform="translate(248,142)"/>
</svg>
